<?xml version="1.0" encoding="utf-8"?>
<!-- Generator: Adobe Illustrator 23.0.3, SVG Export Plug-In . SVG Version: 6.00 Build 0)  -->
<svg version="1.1" id="Layer_1" xmlns="http://www.w3.org/2000/svg" xmlns:xlink="http://www.w3.org/1999/xlink" x="0px" y="0px"
	 viewBox="0 0 1649.68 2048" style="enable-background:new 0 0 1649.68 2048;" xml:space="preserve">
<style type="text/css">
	.st0{fill:#44BBEE;stroke:#2299CC;stroke-width:15;stroke-miterlimit:10;}
	.st1{fill:#0088BB;stroke:#006699;stroke-width:15;stroke-miterlimit:10;}
	.st2{display:none;fill:none;}
	.st3{display:none;fill:#FFFFFF;}
	.st4{display:none;fill:#00FFFF;}
	.st5{display:none;}
	.st6{display:inline;fill:#44BBEE;}
	.st7{display:inline;fill:#0088BB;}
	.st8{display:inline;fill:#EEFFFF;}
	.st9{display:inline;fill:#333344;}
</style>
<path class="st0" d="M1311.53,1024.01c6.52,32.1,9.93,65.3,9.93,99.32c0,111.82-36.95,214.99-99.32,298
	c-89.39,119.02-231.04,196.55-390.88,198.58c-2.13,0.02-4.29,0.04-6.42,0.04c-2.13,0-4.29-0.02-6.42-0.04
	c-164.22-1.28-316.58-52.4-442.7-139c-156.05-107.1-271.94-268.47-320.43-456.9c-16.35-63.49-25.04-130.07-25.04-198.66
	c0-168.67,52.56-325.08,142.19-453.71C316,165.58,554.68,30.75,824.84,30.75c267.27,0,503.76,131.98,647.78,334.33
	c-127.77-87.73-282.47-139.06-449.14-139.06c-70.97,0-139.78,9.31-205.24,26.78c-186.4,49.67-345.82,165.44-451.68,320.65
	C279.69,700.83,228.9,854.78,228.9,1020.62c0,0.58,0,1.18,0.02,1.75c-0.02,0.54-0.02,1.1-0.02,1.64c0,4.75,0.06,9.47,0.2,14.18
	c4.39,156.65,81.31,295.15,198.4,383.1c83.01,62.37,186.2,99.34,298.02,99.34c34.02,0,67.24-3.43,99.32-9.95
	c121.19-24.59,226.38-93.32,298-188.69c61.57-81.97,98.38-183.65,99.28-293.85c0.02-1.38,0.02-2.75,0.02-4.13
	c0-1.38,0-2.75-0.02-4.13c-1.46-106.04-58.26-198.68-142.83-250.32c-43.07-26.32-93.36-41.97-147.2-43.35
	c-0.52-0.04-1.06-0.04-1.6-0.06c-0.78-0.02-1.54-0.06-2.31-0.08c-1.34-0.02-2.67-0.04-4.03-0.04c-1.69,0-3.41,0.02-5.1,0.06
	c-0.3,0.02-0.58,0.02-0.86,0.02c-29.71,0.88-57.79,8.3-82.83,20.84c-3.57,1.77-7.08,3.67-10.53,5.68
	c-33.56,19.38-60.92,48.33-78.34,83.13c-13.42,26.74-20.98,56.95-20.98,88.91c0,36.19,9.67,70.13,26.58,99.34
	c17.45,30.15,42.59,55.29,72.74,72.72c-29.21,16.93-63.13,26.6-99.32,26.6c-31.96,0-62.17-7.56-88.91-20.98
	c-34.79-17.43-63.75-44.78-83.17-78.34c-1.99-3.43-3.89-6.96-5.66-10.53c-12.54-25.04-19.96-53.14-20.84-82.85
	c0-0.28,0-0.56-0.02-0.86c-0.04-1.7-0.06-3.41-0.06-5.1c0-1.06,0-2.11,0.04-3.17c0-0.54,0-1.08,0.02-1.6
	c0.02-0.52,0.04-1.04,0.06-1.58c0-0.36,0.02-0.7,0.02-1.06c1.32-54.04,16.99-104.5,43.39-147.71
	c51.66-84.58,144.3-141.37,250.32-142.83c1.38-0.02,2.75-0.02,4.13-0.02c1.38,0,2.75,0,4.13,0.02
	c110.23,0.9,211.88,37.71,293.87,99.3C1218.19,797.65,1286.92,902.84,1311.53,1024.01z"/>
<path class="st1" d="M1619.44,1222.65c0,165.84-50.81,319.81-137.72,447.21c-143.03,209.71-383.88,347.39-656.88,347.39
	c-270.16,0-508.86-134.85-652.41-340.91c128.65,89.69,285.08,142.25,453.77,142.25c70.97,0,139.74-9.29,205.2-26.76
	c183.77-48.97,341.33-162.19,447.17-314.11c88.51-127,140.87-281.07,142.17-447.29c0.02-2.13,0.04-4.29,0.04-6.42
	c0-2.13-0.02-4.29-0.04-6.42c-2.03-159.88-79.58-301.53-198.62-390.94c-82.99-62.33-186.16-99.28-297.96-99.28
	c-34.02,0-67.24,3.43-99.32,9.95c-121.21,24.59-226.38,93.34-298,188.71c-61.59,81.97-98.38,183.65-99.28,293.85
	c-0.02,1.38-0.02,2.75-0.02,4.13c0,1.38,0,2.75,0.02,4.13c1.46,106.02,58.26,198.68,142.85,250.32
	c43.21,26.4,93.64,42.05,147.65,43.35c0.38,0.02,0.76,0.04,1.14,0.04c1.04,0.04,2.09,0.08,3.15,0.08c1.06,0.04,2.11,0.04,3.17,0.04
	c1.69,0,3.41-0.02,5.1-0.06c0.28-0.02,0.58-0.02,0.86-0.02c29.69-0.88,57.77-8.27,82.81-20.82c3.59-1.79,7.1-3.69,10.55-5.7
	c33.56-19.4,60.92-48.35,78.34-83.13c13.42-26.74,20.98-56.95,20.98-88.91c0-36.17-9.67-70.11-26.58-99.32
	c-17.43-30.17-42.57-55.31-72.74-72.74c29.21-16.93,63.13-26.6,99.32-26.6c31.96,0,62.17,7.56,88.91,20.98
	c34.79,17.43,63.75,44.78,83.17,78.36c1.99,3.43,3.89,6.96,5.66,10.53c12.56,25.04,19.96,53.12,20.84,82.83c0,0.28,0,0.58,0.02,0.86
	c0.04,1.69,0.06,3.41,0.06,5.1c0,1.06,0,2.11-0.04,3.17c0,0.52,0,1.06-0.02,1.58c-0.02,0.54-0.04,1.08-0.06,1.6
	c0,0.36-0.02,0.7-0.02,1.06c-1.32,54.04-16.99,104.52-43.41,147.73c-51.66,84.56-144.3,141.35-250.3,142.81
	c-1.38,0.02-2.75,0.02-4.13,0.02c-1.38,0-2.75,0-4.13-0.02c-110.23-0.9-211.88-37.69-293.87-99.28
	c-95.35-71.64-164.08-176.79-188.69-297.98c-6.5-32.1-9.93-65.32-9.93-99.34c0-111.8,36.95-214.97,99.32-297.98
	c89.39-119.02,231.04-196.57,390.88-198.6c2.13-0.02,4.29-0.04,6.42-0.04c2.13,0,4.29,0.02,6.42,0.04
	c166.24,1.3,320.29,53.68,447.31,142.19c153.74,107.1,267.81,267.15,315.83,453.73C1610.75,1087.5,1619.44,1154.06,1619.44,1222.65z
	"/>
<path class="st2" d="M1774.63,1020.77c0,256.46-127.05,483.23-321.65,620.84c83.12-121.82,131.7-269.06,131.7-427.65
	c0-65.59-8.31-129.24-23.95-189.95c-45.91-178.42-155-331.47-302.01-433.88c-121.46-84.64-268.78-134.73-427.74-135.97
	c-2.04-0.02-4.1-0.04-6.14-0.04c-2.04,0-4.1,0.02-6.14,0.04c-152.85,1.94-288.3,76.1-373.78,189.91
	c-59.64,79.38-94.98,178.03-94.98,284.95c0,32.53,3.28,64.3,9.5,94.99c23.53,115.89,89.26,216.44,180.44,284.95
	c78.41,58.9,175.61,94.08,281.02,94.94c1.32,0.02,2.63,0.02,3.95,0.02c1.32,0,2.63,0,3.95-0.02
	c101.36-1.39,189.95-55.7,239.35-136.56c25.26-41.32,40.25-89.6,41.51-141.27c0.04-0.84,0.06-1.68,0.08-2.54
	c0.02-0.5,0.02-1.01,0.02-1.51c0.04-1.01,0.04-2.02,0.04-3.03c0-1.62-0.02-3.26-0.06-4.88c-0.02-0.27-0.02-0.55-0.02-0.82
	c-0.84-28.41-7.91-55.26-19.93-79.21c-1.7-3.41-3.51-6.79-5.42-10.07c-18.57-32.11-46.26-58.27-79.53-74.94
	c-25.57-12.83-54.46-20.06-85.02-20.06c-34.61,0-67.04,9.25-94.98,25.44c-28.85,16.67-52.89,40.71-69.56,69.56
	c-16.17-27.93-25.42-60.39-25.42-94.99c0-30.57,7.23-59.45,20.06-85.02c16.67-33.27,42.83-60.96,74.92-79.49
	c3.3-1.93,6.65-3.74,10.07-5.43c23.95-11.99,50.8-19.09,79.21-19.93c0.27,0,0.53,0,0.82-0.02c1.62-0.04,3.26-0.06,4.88-0.06
	c1.3,0,2.57,0.02,3.85,0.04c0.74,0.02,1.47,0.06,2.21,0.08c0.51,0.02,1.03,0.02,1.53,0.06c51.48,1.32,99.57,16.28,140.76,41.45
	c80.87,49.39,135.19,137.97,136.58,239.37c0.02,1.32,0.02,2.63,0.02,3.95c0,1.32,0,2.63-0.02,3.95
	c-0.86,105.39-36.06,202.61-94.94,281c-68.49,91.2-169.07,156.93-284.96,180.44c-30.68,6.24-62.45,9.51-94.98,9.51
	c-106.93,0-205.61-35.35-284.98-94.99c-111.96-84.11-185.53-216.55-189.72-366.35c-0.11-5.03-0.17-10.07-0.17-15.12
	c-0.02-0.55-0.02-1.12-0.02-1.68c0-158.58,48.57-305.81,131.64-427.61c101.23-148.42,253.67-259.13,431.92-306.63
	c62.6-16.7,128.4-25.61,196.26-25.61c159.39,0,307.31,49.08,429.5,132.98C1643.79,530.81,1774.63,760.5,1774.63,1020.77z"/>
<path class="st3" d="M1394.71,1024.01c0,2.04-0.02,4.1-0.04,6.14c-1.24,158.95-51.31,306.28-135.95,427.72
	c-101.21,145.28-251.88,253.54-427.61,300.37c-62.6,16.7-128.36,25.59-196.22,25.59c-161.31,0-310.9-50.26-433.92-136.03
	c-197.01-137.27-325.92-365.47-325.92-623.79S3.96,537.46,200.97,400.18C115.26,523.18,65,672.75,65,834.04
	c0,65.59,8.31,129.26,23.95,189.97c46.37,180.19,157.19,334.5,306.42,436.91c120.6,82.81,266.3,131.7,423.34,132.92
	c2.04,0.02,4.1,0.04,6.14,0.04c2.04,0,4.1-0.02,6.14-0.04c152.85-1.94,288.3-76.08,373.78-189.89
	c59.64-79.38,94.98-178.03,94.98-284.96c0-32.53-3.26-64.28-9.5-94.98c-23.53-115.87-89.26-216.46-180.44-284.95
	c-78.41-58.9-175.61-94.1-281.02-94.96c-1.32-0.02-2.63-0.02-3.95-0.02c-1.32,0-2.63,0-3.95,0.02
	c-101.38,1.39-189.97,55.7-239.37,136.58c-25.25,41.32-40.23,89.58-41.49,141.25c-0.04,0.84-0.06,1.68-0.08,2.52
	c-0.02,0.5-0.02,1.01-0.02,1.53c-0.04,1.01-0.04,2.02-0.04,3.03c0,1.62,0.02,3.26,0.06,4.88c0.02,0.29,0.02,0.55,0.02,0.82
	c0.84,28.41,7.93,55.28,19.93,79.23c1.7,3.41,3.51,6.79,5.42,10.07c18.57,32.09,46.26,58.25,79.53,74.92
	c25.57,12.83,54.46,20.06,85.02,20.06c34.61,0,67.04-9.25,94.98-25.44c28.83-16.67,52.87-40.71,69.56-69.54
	c16.17,27.93,25.42,60.39,25.42,94.98c0,30.57-7.23,59.45-20.06,85.02c-16.67,33.25-42.83,60.94-74.92,79.49
	c-3.3,1.93-6.65,3.74-10.09,5.45c-23.95,11.99-50.8,19.07-79.19,19.91c-0.27,0-0.55,0-0.82,0.02c-1.62,0.04-3.26,0.06-4.88,0.06
	c-1.01,0-2.02,0-3.03-0.04c-1.01,0-2.02-0.04-3.01-0.08c-0.36,0-0.72-0.02-1.09-0.04c-51.65-1.24-99.88-16.21-141.2-41.45
	c-80.88-49.38-135.21-137.99-136.6-239.37c-0.02-1.32-0.02-2.63-0.02-3.95c0-1.32,0-2.63,0.02-3.95
	c0.86-105.39,36.04-202.61,94.94-281c68.49-91.2,169.05-156.94,284.96-180.46c30.68-6.24,62.45-9.51,94.98-9.51
	c106.91,0,205.57,35.33,284.93,94.94c113.83,85.5,187.99,220.95,189.93,373.84C1394.69,1019.91,1394.71,1021.97,1394.71,1024.01z"/>
<path class="st4" d="M894.4,1024.01c-16.68,28.83-40.73,52.87-69.56,69.54c-28.83-16.67-52.87-40.71-69.56-69.54
	c16.67-28.85,40.71-52.89,69.56-69.56C853.69,971.12,877.73,995.16,894.4,1024.01z"/>
<g class="st5">
	<rect x="1233.59" y="9.26" class="st6" width="129.88" height="129.88"/>
	<rect x="1396.12" y="9.26" class="st7" width="129.88" height="129.88"/>
	<rect x="1558.66" y="9.26" class="st8" width="129.88" height="129.88"/>
	<rect x="1718.96" y="9.26" class="st9" width="129.88" height="129.88"/>
</g>
</svg>
